<svg width="76" height="29" viewBox="0 0 76 29" fill="none" xmlns="http://www.w3.org/2000/svg">
<rect x="0.333496" y="0.833496" width="74.2316" height="27.5" rx="13.75" fill="#373535"/>
<g clip-path="url(#clip0_36_123)">
<path fill-rule="evenodd" clip-rule="evenodd" d="M14.3026 2.55225C21.0309 2.55225 26.485 7.93107 26.485 14.5674C26.485 19.8748 22.9984 24.3772 18.1607 25.9674C17.5431 26.0858 17.3238 25.7106 17.3238 25.3907C17.3238 24.9946 17.3384 23.7008 17.3384 22.093C17.3384 20.9727 16.9486 20.2415 16.5112 19.8689C19.2243 19.5712 22.0749 18.5551 22.0749 13.9403C22.0749 12.6278 21.6023 11.5567 20.8202 10.7153C20.9469 10.4118 21.3647 9.18969 20.7008 7.535C20.7008 7.535 19.6799 7.21305 17.3542 8.76696C16.3809 8.50095 15.3381 8.3671 14.3026 8.36241C13.267 8.3671 12.2254 8.50095 11.2533 8.76696C8.92523 7.21305 7.9019 7.535 7.9019 7.535C7.2404 9.18969 7.65825 10.4118 7.78373 10.7153C7.00528 11.5567 6.52894 12.6278 6.52894 13.9403C6.52894 18.5434 9.37354 19.5751 12.0793 19.8786C11.7308 20.1786 11.4153 20.7078 11.3057 21.4848C10.6113 21.7918 8.84725 22.3232 7.76058 20.4869C7.76058 20.4869 7.11613 19.3324 5.89302 19.248C5.89302 19.248 4.70523 19.2329 5.81018 19.9782C5.81018 19.9782 6.60813 20.3473 7.16243 21.736C7.16243 21.736 7.87754 23.8805 11.2667 23.1539C11.2728 24.1582 11.2837 25.1047 11.2837 25.3907C11.2837 25.7082 11.0596 26.0799 10.4517 25.9686C5.61038 24.3807 2.12012 19.876 2.12012 14.5674C2.12012 7.93107 7.57541 2.55225 14.3026 2.55225Z" fill="#EAEAEA"/>
</g>
<path d="M31.6147 18.4155H31.1481C31.1396 18.3552 31.1222 18.3015 31.0959 18.2547C31.0696 18.2071 31.0359 18.1666 30.9947 18.1332C30.9535 18.0998 30.9059 18.0743 30.8519 18.0565C30.7987 18.0388 30.7408 18.0299 30.6783 18.0299C30.5653 18.0299 30.467 18.0579 30.3832 18.114C30.2994 18.1694 30.2344 18.2504 30.1882 18.3569C30.142 18.4628 30.119 18.5913 30.119 18.7426C30.119 18.8981 30.142 19.0288 30.1882 19.1346C30.2351 19.2405 30.3004 19.3204 30.3842 19.3743C30.468 19.4283 30.565 19.4553 30.6751 19.4553C30.7369 19.4553 30.794 19.4471 30.8466 19.4308C30.8999 19.4145 30.9471 19.3907 30.9883 19.3594C31.0295 19.3275 31.0636 19.2888 31.0906 19.2433C31.1183 19.1978 31.1374 19.146 31.1481 19.0878L31.6147 19.0899C31.6026 19.19 31.5724 19.2866 31.5241 19.3797C31.4766 19.472 31.4123 19.5547 31.3313 19.6279C31.2511 19.7003 31.1552 19.7579 31.0437 19.8005C30.9329 19.8424 30.8075 19.8633 30.6676 19.8633C30.473 19.8633 30.299 19.8193 30.1456 19.7312C29.9929 19.6432 29.8722 19.5157 29.7834 19.3488C29.6953 19.1819 29.6513 18.9798 29.6513 18.7426C29.6513 18.5047 29.696 18.3022 29.7855 18.1353C29.875 17.9684 29.9964 17.8413 30.1499 17.754C30.3033 17.6659 30.4759 17.6218 30.6676 17.6218C30.794 17.6218 30.9112 17.6396 31.0192 17.6751C31.1278 17.7106 31.2241 17.7625 31.3079 17.8307C31.3917 17.8981 31.4599 17.9809 31.5124 18.0789C31.5657 18.1769 31.5998 18.2891 31.6147 18.4155ZM32.3908 17.6517V19.8335H31.937V17.6517H32.3908ZM32.7544 19.8335V18.1971H33.2082V19.8335H32.7544ZM32.9823 17.9862C32.9149 17.9862 32.857 17.9638 32.8087 17.9191C32.7611 17.8736 32.7373 17.8193 32.7373 17.7561C32.7373 17.6936 32.7611 17.64 32.8087 17.5952C32.857 17.5498 32.9149 17.527 32.9823 17.527C33.0498 17.527 33.1073 17.5498 33.1549 17.5952C33.2032 17.64 33.2274 17.6936 33.2274 17.7561C33.2274 17.8193 33.2032 17.8736 33.1549 17.9191C33.1073 17.9638 33.0498 17.9862 32.9823 17.9862ZM34.3111 19.8655C34.1435 19.8655 33.9993 19.8299 33.8786 19.7589C33.7585 19.6872 33.6662 19.5878 33.6016 19.4606C33.5376 19.3335 33.5057 19.1872 33.5057 19.0217C33.5057 18.8541 33.538 18.7071 33.6026 18.5807C33.668 18.4535 33.7607 18.3544 33.8807 18.2834C34.0007 18.2117 34.1435 18.1758 34.3089 18.1758C34.4517 18.1758 34.5767 18.2017 34.6839 18.2536C34.7912 18.3054 34.8761 18.3782 34.9386 18.472C35.0011 18.5657 35.0355 18.6758 35.0419 18.8022H34.6136C34.6016 18.7206 34.5696 18.6549 34.5178 18.6052C34.4666 18.5547 34.3995 18.5295 34.3164 18.5295C34.2461 18.5295 34.1847 18.5487 34.1321 18.587C34.0803 18.6247 34.0398 18.6797 34.0107 18.7522C33.9815 18.8246 33.967 18.9123 33.967 19.0153C33.967 19.1197 33.9812 19.2085 34.0096 19.2816C34.0387 19.3548 34.0795 19.4106 34.1321 19.4489C34.1847 19.4873 34.2461 19.5064 34.3164 19.5064C34.3683 19.5064 34.4148 19.4958 34.456 19.4745C34.4979 19.4532 34.5323 19.4223 34.5593 19.3818C34.587 19.3406 34.6051 19.2912 34.6136 19.2337H35.0419C35.0348 19.3587 35.0007 19.4688 34.9396 19.564C34.8793 19.6584 34.7958 19.7323 34.6893 19.7856C34.5827 19.8388 34.4567 19.8655 34.3111 19.8655ZM35.7437 19.3626L35.7448 18.8182H35.8108L36.335 18.1971H36.8559L36.1517 19.0196H36.0441L35.7437 19.3626ZM35.3325 19.8335V17.6517H35.7863V19.8335H35.3325ZM36.3552 19.8335L35.8737 19.1208L36.1762 18.8001L36.8868 19.8335H36.3552ZM38.2267 18.8875V19.8335H37.7729V17.6517H38.214V18.4858H38.2331C38.2701 18.3892 38.3297 18.3136 38.4121 18.2589C38.4945 18.2035 38.5978 18.1758 38.7221 18.1758C38.8358 18.1758 38.9348 18.2007 39.0194 18.2504C39.1046 18.2994 39.1706 18.3701 39.2175 18.4624C39.2651 18.554 39.2885 18.6638 39.2878 18.7916V19.8335H38.834V18.8726C38.8347 18.7717 38.8091 18.6932 38.7573 18.6371C38.7061 18.581 38.6344 18.553 38.5421 18.553C38.4803 18.553 38.4256 18.5661 38.378 18.5924C38.3311 18.6187 38.2942 18.657 38.2672 18.7074C38.2409 18.7571 38.2275 18.8172 38.2267 18.8875ZM40.3907 19.8655C40.2224 19.8655 40.0775 19.8314 39.9561 19.7632C39.8353 19.6943 39.7423 19.597 39.6769 19.4713C39.6116 19.3449 39.5789 19.1954 39.5789 19.0228C39.5789 18.8544 39.6116 18.7067 39.6769 18.5796C39.7423 18.4525 39.8343 18.3534 39.9529 18.2824C40.0722 18.2113 40.2121 18.1758 40.3726 18.1758C40.4806 18.1758 40.5811 18.1932 40.6741 18.228C40.7678 18.2621 40.8495 18.3136 40.9191 18.3825C40.9894 18.4514 41.0441 18.538 41.0832 18.6424C41.1222 18.7461 41.1418 18.8676 41.1418 19.0068V19.1314H39.76V18.8502H40.7146C40.7146 18.7848 40.7004 18.727 40.672 18.6765C40.6436 18.6261 40.6041 18.5867 40.5537 18.5583C40.504 18.5292 40.4461 18.5146 40.3801 18.5146C40.3112 18.5146 40.2501 18.5306 40.1968 18.5625C40.1443 18.5938 40.1031 18.6361 40.0732 18.6893C40.0434 18.7419 40.0281 18.8005 40.0274 18.8651V19.1325C40.0274 19.2135 40.0423 19.2834 40.0722 19.3424C40.1027 19.4013 40.1457 19.4468 40.2011 19.4787C40.2565 19.5107 40.3222 19.5267 40.3982 19.5267C40.4486 19.5267 40.4948 19.5196 40.5367 19.5054C40.5786 19.4912 40.6144 19.4699 40.6443 19.4415C40.6741 19.413 40.6968 19.3782 40.7124 19.337L41.1322 19.3647C41.1109 19.4656 41.0672 19.5537 41.0012 19.629C40.9358 19.7035 40.8513 19.7618 40.7476 19.8037C40.6446 19.8449 40.5257 19.8655 40.3907 19.8655ZM41.4379 19.8335V18.1971H41.8779V18.4826H41.895C41.9248 18.3811 41.9749 18.3044 42.0452 18.2525C42.1155 18.2 42.1965 18.1737 42.2881 18.1737C42.3108 18.1737 42.3353 18.1751 42.3616 18.178C42.3879 18.1808 42.411 18.1847 42.4308 18.1897V18.5924C42.4095 18.586 42.3801 18.5803 42.3424 18.5753C42.3048 18.5704 42.2703 18.5679 42.2391 18.5679C42.1723 18.5679 42.1127 18.5824 42.0601 18.6116C42.0083 18.64 41.9671 18.6797 41.9365 18.7309C41.9067 18.782 41.8918 18.841 41.8918 18.9077V19.8335H41.4379ZM43.335 19.8655C43.1667 19.8655 43.0218 19.8314 42.9004 19.7632C42.7797 19.6943 42.6866 19.597 42.6213 19.4713C42.5559 19.3449 42.5233 19.1954 42.5233 19.0228C42.5233 18.8544 42.5559 18.7067 42.6213 18.5796C42.6866 18.4525 42.7786 18.3534 42.8972 18.2824C43.0165 18.2113 43.1564 18.1758 43.3169 18.1758C43.4249 18.1758 43.5254 18.1932 43.6184 18.228C43.7122 18.2621 43.7939 18.3136 43.8635 18.3825C43.9338 18.4514 43.9885 18.538 44.0275 18.6424C44.0666 18.7461 44.0861 18.8676 44.0861 19.0068V19.1314H42.7044V18.8502H43.6589C43.6589 18.7848 43.6447 18.727 43.6163 18.6765C43.5879 18.6261 43.5485 18.5867 43.498 18.5583C43.4483 18.5292 43.3904 18.5146 43.3244 18.5146C43.2555 18.5146 43.1944 18.5306 43.1412 18.5625C43.0886 18.5938 43.0474 18.6361 43.0176 18.6893C42.9877 18.7419 42.9725 18.8005 42.9718 18.8651V19.1325C42.9718 19.2135 42.9867 19.2834 43.0165 19.3424C43.0471 19.4013 43.09 19.4468 43.1454 19.4787C43.2008 19.5107 43.2665 19.5267 43.3425 19.5267C43.3929 19.5267 43.4391 19.5196 43.481 19.5054C43.5229 19.4912 43.5588 19.4699 43.5886 19.4415C43.6184 19.413 43.6412 19.3782 43.6568 19.337L44.0765 19.3647C44.0552 19.4656 44.0115 19.5537 43.9455 19.629C43.8801 19.7035 43.7956 19.7618 43.6919 19.8037C43.589 19.8449 43.47 19.8655 43.335 19.8655ZM45.9566 18.1971V18.538H44.9466V18.1971H45.9566ZM45.1778 19.8335V18.0789C45.1778 17.9603 45.2009 17.8619 45.2471 17.7838C45.2939 17.7057 45.3579 17.6471 45.4388 17.608C45.5198 17.5689 45.6118 17.5494 45.7148 17.5494C45.7844 17.5494 45.8479 17.5547 45.9055 17.5654C45.9637 17.576 46.007 17.5856 46.0354 17.5941L45.9545 17.9351C45.9367 17.9294 45.9147 17.924 45.8884 17.9191C45.8628 17.9141 45.8366 17.9116 45.8096 17.9116C45.7428 17.9116 45.6963 17.9272 45.67 17.9585C45.6437 17.989 45.6306 18.032 45.6306 18.0874V19.8335H45.1778ZM46.9146 19.8655C46.7491 19.8655 46.606 19.8303 46.4853 19.76C46.3652 19.689 46.2725 19.5902 46.2072 19.4638C46.1419 19.3367 46.1092 19.1893 46.1092 19.0217C46.1092 18.8527 46.1419 18.7049 46.2072 18.5785C46.2725 18.4514 46.3652 18.3527 46.4853 18.2824C46.606 18.2113 46.7491 18.1758 46.9146 18.1758C47.0801 18.1758 47.2228 18.2113 47.3429 18.2824C47.4636 18.3527 47.5566 18.4514 47.622 18.5785C47.6873 18.7049 47.72 18.8527 47.72 19.0217C47.72 19.1893 47.6873 19.3367 47.622 19.4638C47.5566 19.5902 47.4636 19.689 47.3429 19.76C47.2228 19.8303 47.0801 19.8655 46.9146 19.8655ZM46.9167 19.5139C46.992 19.5139 47.0549 19.4926 47.1053 19.45C47.1557 19.4066 47.1937 19.3477 47.2193 19.2731C47.2456 19.1986 47.2587 19.1137 47.2587 19.0185C47.2587 18.9233 47.2456 18.8385 47.2193 18.7639C47.1937 18.6893 47.1557 18.6304 47.1053 18.587C47.0549 18.5437 46.992 18.5221 46.9167 18.5221C46.8407 18.5221 46.7768 18.5437 46.725 18.587C46.6738 18.6304 46.6351 18.6893 46.6088 18.7639C46.5833 18.8385 46.5705 18.9233 46.5705 19.0185C46.5705 19.1137 46.5833 19.1986 46.6088 19.2731C46.6351 19.3477 46.6738 19.4066 46.725 19.45C46.7768 19.4926 46.8407 19.5139 46.9167 19.5139ZM48.0151 19.8335V18.1971H48.4551V18.4826H48.4721C48.502 18.3811 48.552 18.3044 48.6223 18.2525C48.6926 18.2 48.7736 18.1737 48.8652 18.1737C48.888 18.1737 48.9125 18.1751 48.9387 18.178C48.965 18.1808 48.9881 18.1847 49.008 18.1897V18.5924C48.9867 18.586 48.9572 18.5803 48.9196 18.5753C48.8819 18.5704 48.8475 18.5679 48.8162 18.5679C48.7495 18.5679 48.6898 18.5824 48.6373 18.6116C48.5854 18.64 48.5442 18.6797 48.5137 18.7309C48.4838 18.782 48.4689 18.841 48.4689 18.9077V19.8335H48.0151ZM49.937 19.8335V18.1971H50.377V18.4826H50.394C50.4238 18.3811 50.4739 18.3044 50.5442 18.2525C50.6145 18.2 50.6955 18.1737 50.7871 18.1737C50.8098 18.1737 50.8343 18.1751 50.8606 18.178C50.8869 18.1808 50.91 18.1847 50.9299 18.1897V18.5924C50.9086 18.586 50.8791 18.5803 50.8414 18.5753C50.8038 18.5704 50.7694 18.5679 50.7381 18.5679C50.6713 18.5679 50.6117 18.5824 50.5591 18.6116C50.5073 18.64 50.4661 18.6797 50.4355 18.7309C50.4057 18.782 50.3908 18.841 50.3908 18.9077V19.8335H49.937ZM51.8341 19.8655C51.6657 19.8655 51.5209 19.8314 51.3994 19.7632C51.2787 19.6943 51.1856 19.597 51.1203 19.4713C51.055 19.3449 51.0223 19.1954 51.0223 19.0228C51.0223 18.8544 51.055 18.7067 51.1203 18.5796C51.1856 18.4525 51.2776 18.3534 51.3962 18.2824C51.5155 18.2113 51.6555 18.1758 51.816 18.1758C51.9239 18.1758 52.0244 18.1932 52.1175 18.228C52.2112 18.2621 52.2929 18.3136 52.3625 18.3825C52.4328 18.4514 52.4875 18.538 52.5265 18.6424C52.5656 18.7461 52.5851 18.8676 52.5851 19.0068V19.1314H51.2034V18.8502H52.1579C52.1579 18.7848 52.1437 18.727 52.1153 18.6765C52.0869 18.6261 52.0475 18.5867 51.9971 18.5583C51.9474 18.5292 51.8895 18.5146 51.8234 18.5146C51.7545 18.5146 51.6934 18.5306 51.6402 18.5625C51.5876 18.5938 51.5464 18.6361 51.5166 18.6893C51.4868 18.7419 51.4715 18.8005 51.4708 18.8651V19.1325C51.4708 19.2135 51.4857 19.2834 51.5155 19.3424C51.5461 19.4013 51.589 19.4468 51.6444 19.4787C51.6998 19.5107 51.7655 19.5267 51.8415 19.5267C51.892 19.5267 51.9381 19.5196 51.98 19.5054C52.0219 19.4912 52.0578 19.4699 52.0876 19.4415C52.1175 19.413 52.1402 19.3782 52.1558 19.337L52.5756 19.3647C52.5542 19.4656 52.5106 19.5537 52.4445 19.629C52.3792 19.7035 52.2947 19.7618 52.191 19.8037C52.088 19.8449 51.969 19.8655 51.8341 19.8655ZM52.8813 20.4471V18.1971H53.3287V18.472H53.349C53.3689 18.428 53.3976 18.3832 53.4353 18.3378C53.4736 18.2916 53.5233 18.2532 53.5844 18.2227C53.6462 18.1915 53.7229 18.1758 53.8145 18.1758C53.9339 18.1758 54.0439 18.2071 54.1448 18.2696C54.2456 18.3314 54.3263 18.4248 54.3866 18.5498C54.447 18.6741 54.4772 18.8299 54.4772 19.0174C54.4772 19.2 54.4477 19.3541 54.3888 19.4798C54.3305 19.6048 54.251 19.6996 54.1501 19.7642C54.05 19.8282 53.9378 19.8601 53.8135 19.8601C53.7254 19.8601 53.6505 19.8456 53.5887 19.8165C53.5276 19.7873 53.4775 19.7508 53.4385 19.7067C53.3994 19.662 53.3696 19.6169 53.349 19.5714H53.3351V20.4471H52.8813ZM53.3256 19.0153C53.3256 19.1126 53.339 19.1975 53.366 19.2699C53.393 19.3424 53.4321 19.3988 53.4832 19.4393C53.5344 19.4791 53.5965 19.499 53.6697 19.499C53.7435 19.499 53.806 19.4787 53.8572 19.4383C53.9083 19.3971 53.947 19.3402 53.9733 19.2678C54.0003 19.1946 54.0138 19.1105 54.0138 19.0153C54.0138 18.9209 54.0006 18.8378 53.9743 18.766C53.9481 18.6943 53.9094 18.6382 53.8582 18.5977C53.8071 18.5572 53.7442 18.537 53.6697 18.537C53.5958 18.537 53.5333 18.5565 53.4822 18.5956C53.4317 18.6346 53.393 18.69 53.366 18.7618C53.339 18.8335 53.3256 18.918 53.3256 19.0153ZM55.5191 19.8655C55.3536 19.8655 55.2105 19.8303 55.0898 19.76C54.9697 19.689 54.877 19.5902 54.8117 19.4638C54.7464 19.3367 54.7137 19.1893 54.7137 19.0217C54.7137 18.8527 54.7464 18.7049 54.8117 18.5785C54.877 18.4514 54.9697 18.3527 55.0898 18.2824C55.2105 18.2113 55.3536 18.1758 55.5191 18.1758C55.6846 18.1758 55.8273 18.2113 55.9474 18.2824C56.0681 18.3527 56.1611 18.4514 56.2265 18.5785C56.2918 18.7049 56.3245 18.8527 56.3245 19.0217C56.3245 19.1893 56.2918 19.3367 56.2265 19.4638C56.1611 19.5902 56.0681 19.689 55.9474 19.76C55.8273 19.8303 55.6846 19.8655 55.5191 19.8655ZM55.5212 19.5139C55.5965 19.5139 55.6594 19.4926 55.7098 19.45C55.7602 19.4066 55.7982 19.3477 55.8238 19.2731C55.8501 19.1986 55.8632 19.1137 55.8632 19.0185C55.8632 18.9233 55.8501 18.8385 55.8238 18.7639C55.7982 18.6893 55.7602 18.6304 55.7098 18.587C55.6594 18.5437 55.5965 18.5221 55.5212 18.5221C55.4452 18.5221 55.3813 18.5437 55.3295 18.587C55.2783 18.6304 55.2396 18.6893 55.2133 18.7639C55.1878 18.8385 55.175 18.9233 55.175 19.0185C55.175 19.1137 55.1878 19.1986 55.2133 19.2731C55.2396 19.3477 55.2783 19.4066 55.3295 19.45C55.3813 19.4926 55.4452 19.5139 55.5212 19.5139ZM57.7805 19.8644C57.6761 19.8644 57.5831 19.8463 57.5014 19.8101C57.4197 19.7731 57.3551 19.7188 57.3075 19.6471C57.2607 19.5746 57.2372 19.4844 57.2372 19.3765C57.2372 19.2856 57.2539 19.2092 57.2873 19.1474C57.3207 19.0856 57.3661 19.0359 57.4237 18.9983C57.4812 18.9606 57.5465 18.9322 57.6197 18.913C57.6935 18.8939 57.771 18.8804 57.8519 18.8726C57.9471 18.8626 58.0238 18.8534 58.082 18.8449C58.1403 18.8356 58.1825 18.8221 58.2088 18.8044C58.2351 18.7866 58.2482 18.7603 58.2482 18.7255V18.7191C58.2482 18.6517 58.2269 18.5995 58.1843 18.5625C58.1424 18.5256 58.0827 18.5071 58.0053 18.5071C57.9237 18.5071 57.8587 18.5253 57.8104 18.5615C57.7621 18.597 57.7301 18.6417 57.7145 18.6957L57.2947 18.6616C57.3161 18.5622 57.358 18.4763 57.4205 18.4038C57.483 18.3307 57.5636 18.2745 57.6623 18.2355C57.7617 18.1957 57.8768 18.1758 58.0075 18.1758C58.0984 18.1758 58.1854 18.1865 58.2685 18.2078C58.3523 18.2291 58.4265 18.2621 58.4911 18.3069C58.5565 18.3516 58.608 18.4091 58.6456 18.4794C58.6832 18.5491 58.7021 18.6325 58.7021 18.7298V19.8335H58.2717V19.6066H58.2589C58.2326 19.6577 58.1974 19.7028 58.1534 19.7419C58.1094 19.7802 58.0565 19.8104 57.9947 19.8324C57.9329 19.8537 57.8615 19.8644 57.7805 19.8644ZM57.9105 19.5512C57.9773 19.5512 58.0362 19.538 58.0874 19.5118C58.1385 19.4848 58.1786 19.4486 58.2077 19.4031C58.2369 19.3576 58.2514 19.3062 58.2514 19.2486V19.075C58.2372 19.0842 58.2177 19.0927 58.1928 19.1005C58.1687 19.1076 58.1413 19.1144 58.1108 19.1208C58.0803 19.1265 58.0497 19.1318 58.0192 19.1368C57.9886 19.141 57.9609 19.1449 57.9361 19.1485C57.8828 19.1563 57.8363 19.1687 57.7965 19.1858C57.7567 19.2028 57.7259 19.2259 57.7038 19.255C57.6818 19.2834 57.6708 19.3189 57.6708 19.3616C57.6708 19.4233 57.6932 19.4706 57.7379 19.5032C57.7834 19.5352 57.8409 19.5512 57.9105 19.5512ZM59.7935 19.8655C59.6259 19.8655 59.4817 19.8299 59.361 19.7589C59.2409 19.6872 59.1486 19.5878 59.084 19.4606C59.0201 19.3335 58.9881 19.1872 58.9881 19.0217C58.9881 18.8541 59.0204 18.7071 59.085 18.5807C59.1504 18.4535 59.2431 18.3544 59.3631 18.2834C59.4831 18.2117 59.6259 18.1758 59.7914 18.1758C59.9341 18.1758 60.0591 18.2017 60.1664 18.2536C60.2736 18.3054 60.3585 18.3782 60.421 18.472C60.4835 18.5657 60.5179 18.6758 60.5243 18.8022H60.0961C60.084 18.7206 60.052 18.6549 60.0002 18.6052C59.949 18.5547 59.8819 18.5295 59.7988 18.5295C59.7285 18.5295 59.6671 18.5487 59.6145 18.587C59.5627 18.6247 59.5222 18.6797 59.4931 18.7522C59.464 18.8246 59.4494 18.9123 59.4494 19.0153C59.4494 19.1197 59.4636 19.2085 59.492 19.2816C59.5211 19.3548 59.562 19.4106 59.6145 19.4489C59.6671 19.4873 59.7285 19.5064 59.7988 19.5064C59.8507 19.5064 59.8972 19.4958 59.9384 19.4745C59.9803 19.4532 60.0147 19.4223 60.0417 19.3818C60.0694 19.3406 60.0875 19.2912 60.0961 19.2337H60.5243C60.5172 19.3587 60.4831 19.4688 60.4221 19.564C60.3617 19.6584 60.2782 19.7323 60.1717 19.7856C60.0652 19.8388 59.9391 19.8655 59.7935 19.8655ZM61.5542 19.8655C61.3866 19.8655 61.2425 19.8299 61.1217 19.7589C61.0017 19.6872 60.9094 19.5878 60.8447 19.4606C60.7808 19.3335 60.7488 19.1872 60.7488 19.0217C60.7488 18.8541 60.7812 18.7071 60.8458 18.5807C60.9111 18.4535 61.0038 18.3544 61.1238 18.2834C61.2439 18.2117 61.3866 18.1758 61.5521 18.1758C61.6949 18.1758 61.8199 18.2017 61.9271 18.2536C62.0344 18.3054 62.1192 18.3782 62.1817 18.472C62.2442 18.5657 62.2787 18.6758 62.2851 18.8022H61.8568C61.8447 18.7206 61.8128 18.6549 61.7609 18.6052C61.7098 18.5547 61.6427 18.5295 61.5596 18.5295C61.4893 18.5295 61.4278 18.5487 61.3753 18.587C61.3234 18.6247 61.2829 18.6797 61.2538 18.7522C61.2247 18.8246 61.2101 18.9123 61.2101 19.0153C61.2101 19.1197 61.2243 19.2085 61.2528 19.2816C61.2819 19.3548 61.3227 19.4106 61.3753 19.4489C61.4278 19.4873 61.4893 19.5064 61.5596 19.5064C61.6114 19.5064 61.6579 19.4958 61.6991 19.4745C61.741 19.4532 61.7755 19.4223 61.8025 19.3818C61.8302 19.3406 61.8483 19.2912 61.8568 19.2337H62.2851C62.278 19.3587 62.2439 19.4688 62.1828 19.564C62.1224 19.6584 62.039 19.7323 61.9324 19.7856C61.8259 19.8388 61.6998 19.8655 61.5542 19.8655ZM63.3214 19.8655C63.1531 19.8655 63.0082 19.8314 62.8867 19.7632C62.766 19.6943 62.6729 19.597 62.6076 19.4713C62.5423 19.3449 62.5096 19.1954 62.5096 19.0228C62.5096 18.8544 62.5423 18.7067 62.6076 18.5796C62.6729 18.4525 62.7649 18.3534 62.8835 18.2824C63.0028 18.2113 63.1428 18.1758 63.3033 18.1758C63.4112 18.1758 63.5117 18.1932 63.6048 18.228C63.6985 18.2621 63.7802 18.3136 63.8498 18.3825C63.9201 18.4514 63.9748 18.538 64.0138 18.6424C64.0529 18.7461 64.0724 18.8676 64.0724 19.0068V19.1314H62.6907V18.8502H63.6452C63.6452 18.7848 63.631 18.727 63.6026 18.6765C63.5742 18.6261 63.5348 18.5867 63.4844 18.5583C63.4347 18.5292 63.3768 18.5146 63.3107 18.5146C63.2418 18.5146 63.1808 18.5306 63.1275 18.5625C63.0749 18.5938 63.0337 18.6361 63.0039 18.6893C62.9741 18.7419 62.9588 18.8005 62.9581 18.8651V19.1325C62.9581 19.2135 62.973 19.2834 63.0028 19.3424C63.0334 19.4013 63.0763 19.4468 63.1317 19.4787C63.1871 19.5107 63.2528 19.5267 63.3288 19.5267C63.3793 19.5267 63.4254 19.5196 63.4673 19.5054C63.5092 19.4912 63.5451 19.4699 63.5749 19.4415C63.6048 19.413 63.6275 19.3782 63.6431 19.337L64.0629 19.3647C64.0415 19.4656 63.9979 19.5537 63.9318 19.629C63.8665 19.7035 63.782 19.7618 63.6783 19.8037C63.5753 19.8449 63.4563 19.8655 63.3214 19.8655ZM65.7301 18.6638L65.3146 18.6893C65.3075 18.6538 65.2923 18.6218 65.2688 18.5934C65.2454 18.5643 65.2145 18.5412 65.1761 18.5242C65.1385 18.5064 65.0934 18.4976 65.0408 18.4976C64.9705 18.4976 64.9112 18.5125 64.8629 18.5423C64.8146 18.5714 64.7905 18.6105 64.7905 18.6595C64.7905 18.6986 64.8061 18.7316 64.8374 18.7586C64.8686 18.7856 64.9222 18.8072 64.9982 18.8236L65.2944 18.8832C65.4535 18.9159 65.5721 18.9684 65.6502 19.0409C65.7283 19.1133 65.7674 19.2085 65.7674 19.3264C65.7674 19.4336 65.7358 19.5277 65.6726 19.6087C65.6101 19.6897 65.5241 19.7529 65.4148 19.7983C65.3061 19.8431 65.1808 19.8655 65.0387 19.8655C64.8221 19.8655 64.6495 19.8204 64.521 19.7302C64.3931 19.6392 64.3182 19.5157 64.2962 19.3594L64.7425 19.336C64.756 19.402 64.7887 19.4525 64.8406 19.4873C64.8924 19.5214 64.9588 19.5384 65.0398 19.5384C65.1193 19.5384 65.1832 19.5231 65.2315 19.4926C65.2805 19.4613 65.3054 19.4212 65.3061 19.3722C65.3054 19.331 65.288 19.2973 65.2539 19.271C65.2198 19.244 65.1673 19.2234 65.0962 19.2092L64.8129 19.1527C64.6531 19.1208 64.5341 19.0654 64.456 18.9866C64.3786 18.9077 64.3398 18.8072 64.3398 18.6851C64.3398 18.5799 64.3683 18.4894 64.4251 18.4134C64.4826 18.3374 64.5632 18.2788 64.6669 18.2376C64.7713 18.1964 64.8935 18.1758 65.0334 18.1758C65.2401 18.1758 65.4027 18.2195 65.5213 18.3069C65.6406 18.3942 65.7102 18.5132 65.7301 18.6638ZM67.4147 18.6638L66.9992 18.6893C66.9921 18.6538 66.9768 18.6218 66.9534 18.5934C66.93 18.5643 66.8991 18.5412 66.8607 18.5242C66.8231 18.5064 66.778 18.4976 66.7254 18.4976C66.6551 18.4976 66.5958 18.5125 66.5475 18.5423C66.4992 18.5714 66.4751 18.6105 66.4751 18.6595C66.4751 18.6986 66.4907 18.7316 66.5219 18.7586C66.5532 18.7856 66.6068 18.8072 66.6828 18.8236L66.979 18.8832C67.1381 18.9159 67.2567 18.9684 67.3348 19.0409C67.4129 19.1133 67.452 19.2085 67.452 19.3264C67.452 19.4336 67.4204 19.5277 67.3572 19.6087C67.2947 19.6897 67.2087 19.7529 67.0993 19.7983C66.9907 19.8431 66.8653 19.8655 66.7233 19.8655C66.5067 19.8655 66.3341 19.8204 66.2055 19.7302C66.0777 19.6392 66.0028 19.5157 65.9807 19.3594L66.4271 19.336C66.4406 19.402 66.4733 19.4525 66.5251 19.4873C66.577 19.5214 66.6434 19.5384 66.7243 19.5384C66.8039 19.5384 66.8678 19.5231 66.9161 19.4926C66.9651 19.4613 66.99 19.4212 66.9907 19.3722C66.99 19.331 66.9726 19.2973 66.9385 19.271C66.9044 19.244 66.8518 19.2234 66.7808 19.2092L66.4974 19.1527C66.3376 19.1208 66.2187 19.0654 66.1405 18.9866C66.0631 18.9077 66.0244 18.8072 66.0244 18.6851C66.0244 18.5799 66.0528 18.4894 66.1096 18.4134C66.1672 18.3374 66.2478 18.2788 66.3515 18.2376C66.4559 18.1964 66.578 18.1758 66.718 18.1758C66.9246 18.1758 67.0873 18.2195 67.2059 18.3069C67.3252 18.3942 67.3948 18.5132 67.4147 18.6638Z" fill="#EAEAEA"/>
<path d="M32.7727 13.0469C32.7429 12.9432 32.701 12.8516 32.647 12.772C32.593 12.6911 32.527 12.6229 32.4489 12.5675C32.3722 12.5107 32.2841 12.4673 32.1847 12.4375C32.0866 12.4077 31.978 12.3928 31.8587 12.3928C31.6357 12.3928 31.4396 12.4482 31.2706 12.5589C31.103 12.6697 30.9723 12.831 30.8786 13.0426C30.7848 13.2528 30.7379 13.5099 30.7379 13.8139C30.7379 14.1179 30.7841 14.3764 30.8764 14.5895C30.9688 14.8026 31.0994 14.9652 31.2685 15.0774C31.4375 15.1882 31.6371 15.2436 31.8672 15.2436C32.076 15.2436 32.2543 15.2067 32.402 15.1328C32.5511 15.0575 32.6648 14.9517 32.7429 14.8153C32.8224 14.679 32.8622 14.5178 32.8622 14.3317L33.0497 14.3594H31.9247V13.6648H33.7507V14.2145C33.7507 14.598 33.6697 14.9276 33.5078 15.2031C33.3459 15.4773 33.1229 15.6889 32.8388 15.8381C32.5547 15.9858 32.2294 16.0597 31.8629 16.0597C31.4538 16.0597 31.0945 15.9695 30.7848 15.7891C30.4751 15.6072 30.2337 15.3494 30.0604 15.0156C29.8885 14.6804 29.8026 14.2827 29.8026 13.8224C29.8026 13.4687 29.8537 13.1534 29.956 12.8764C30.0597 12.598 30.2045 12.3622 30.3906 12.169C30.5767 11.9759 30.7933 11.8288 31.0405 11.728C31.2876 11.6271 31.5554 11.5767 31.8438 11.5767C32.0909 11.5767 32.321 11.6129 32.5341 11.6854C32.7472 11.7564 32.9361 11.8572 33.1009 11.9879C33.267 12.1186 33.4027 12.2741 33.5078 12.4545C33.6129 12.6335 33.6804 12.831 33.7102 13.0469H32.7727ZM35.3663 11.6364V16H34.4437V11.6364H35.3663ZM35.9592 12.397V11.6364H39.543V12.397H38.207V16H37.2951V12.397H35.9592ZM40.1332 16V11.6364H41.0558V13.4368H42.9286V11.6364H43.8491V16H42.9286V14.1974H41.0558V16H40.1332ZM47.305 11.6364H48.2276V14.4702C48.2276 14.7884 48.1516 15.0668 47.9996 15.3054C47.8491 15.544 47.6381 15.7301 47.3668 15.8636C47.0955 15.9957 46.7795 16.0618 46.4187 16.0618C46.0565 16.0618 45.7397 15.9957 45.4684 15.8636C45.1971 15.7301 44.9862 15.544 44.8356 15.3054C44.685 15.0668 44.6097 14.7884 44.6097 14.4702V11.6364H45.5323V14.3913C45.5323 14.5575 45.5685 14.7053 45.641 14.8345C45.7148 14.9638 45.8185 15.0653 45.9521 15.1392C46.0856 15.2131 46.2411 15.25 46.4187 15.25C46.5977 15.25 46.7532 15.2131 46.8853 15.1392C47.0188 15.0653 47.1218 14.9638 47.1942 14.8345C47.2681 14.7053 47.305 14.5575 47.305 14.3913V11.6364ZM48.9867 16V11.6364H50.7338C51.0549 11.6364 51.3226 11.6839 51.5371 11.7791C51.7516 11.8743 51.9128 12.0064 52.0208 12.1754C52.1287 12.343 52.1827 12.5362 52.1827 12.755C52.1827 12.9254 52.1486 13.0753 52.0804 13.2045C52.0123 13.3324 51.9185 13.4375 51.7992 13.5199C51.6813 13.6009 51.5463 13.6584 51.3944 13.6925V13.7351C51.5605 13.7422 51.7161 13.7891 51.861 13.8757C52.0073 13.9624 52.1259 14.0838 52.2168 14.2401C52.3077 14.3949 52.3532 14.5795 52.3532 14.794C52.3532 15.0256 52.2956 15.2322 52.1806 15.4141C52.0669 15.5945 51.8986 15.7372 51.6756 15.8423C51.4526 15.9474 51.1777 16 50.851 16H48.9867ZM49.9093 15.2457H50.6614C50.9185 15.2457 51.106 15.1967 51.2239 15.0987C51.3418 14.9993 51.4007 14.8672 51.4007 14.7024C51.4007 14.5817 51.3716 14.4751 51.3134 14.3828C51.2551 14.2905 51.1721 14.218 51.0641 14.1655C50.9576 14.1129 50.8304 14.0866 50.6827 14.0866H49.9093V15.2457ZM49.9093 13.4624H50.5932C50.7196 13.4624 50.8319 13.4403 50.9299 13.3963C51.0293 13.3509 51.1074 13.2869 51.1642 13.2045C51.2225 13.1222 51.2516 13.0234 51.2516 12.9084C51.2516 12.7507 51.1955 12.6236 51.0833 12.527C50.9725 12.4304 50.8148 12.3821 50.6103 12.3821H49.9093V13.4624Z" fill="#EAEAEA"/>
<defs>
<clipPath id="clip0_36_123">
<rect width="24.3649" height="23.4375" fill="white" transform="translate(2.12012 2.55225)"/>
</clipPath>
</defs>
</svg>
