<svg width="35" height="30" viewBox="0 0 35 30" fill="none" xmlns="http://www.w3.org/2000/svg">
<rect width="30" height="30" rx="7" fill="#373535"/>
<path d="M4 14.6774V14.6484C4.27222 11.2499 5.54419 8.70087 7.75391 7.08931C9.93359 5.44869 12.2954 4.65744 14.8684 4.65744C17.5625 4.62837 20.0754 5.50681 22.3162 7.26462C24.5869 8.99337 25.7068 11.5715 25.7068 14.9109V15.1162C25.7068 18.4856 24.5869 21.0046 22.3162 22.7334C20.0454 24.4912 17.5325 25.3706 14.8384 25.3706H14.7173C12.0832 25.3415 9.66138 24.4621 7.42163 22.7043C5.18091 20.9756 4.031 18.3093 4.00097 14.6765L4 14.6774ZM14.2019 10.0781V5.44869H13.4753C13.3242 5.62494 13.2031 5.82931 13.082 6.00556C12.9609 6.18181 12.8398 6.35712 12.7188 6.56244C12.5977 6.73869 12.4465 6.97306 12.3555 7.14837C12.2344 7.32462 12.1433 7.49994 12.0523 7.70525C11.8701 7.99869 11.719 8.29119 11.5979 8.55462C11.4468 8.81806 11.3257 9.08244 11.2346 9.31681C11.4167 9.434 11.6279 9.58025 11.8701 9.66837C12.1423 9.7565 12.4155 9.84462 12.6878 9.90275C12.991 9.96181 13.2632 9.99087 13.5054 10.0199C13.7776 10.049 14.0198 10.079 14.2019 10.079V10.0781ZM15.4739 5.44962V10.049C15.625 10.049 15.8071 10.0781 15.9883 10.049C16.1704 10.049 16.3816 10.0199 16.5637 9.98994C16.897 9.93087 17.2903 9.84369 17.5935 9.75556C17.9267 9.63837 18.229 9.49212 18.4412 9.31587C18.0779 8.4665 17.6846 7.79244 17.2903 7.14744C16.896 6.50244 16.4426 5.9465 15.9582 5.47775V5.44869H15.4739V5.44962ZM12.2043 5.71306V5.684C11.9922 5.77212 11.78 5.91837 11.5378 6.0065C11.3257 6.09462 11.0535 6.21181 10.8413 6.329C10.417 6.53431 9.99366 6.76869 9.56934 7.03212C9.17603 7.29556 8.78175 7.589 8.44947 7.8815C8.57056 7.99869 8.72169 8.11587 8.84278 8.204C8.96388 8.29212 9.115 8.40931 9.26709 8.5265C9.38819 8.58556 9.53931 8.67275 9.69141 8.78994C9.84253 8.87806 10.0247 8.99525 10.2058 9.11244C10.448 8.58462 10.6902 8.02869 10.9934 7.52994C11.2966 7.00212 11.6289 6.50431 11.9622 6.06462C11.9922 6.00556 12.0232 5.94744 12.0832 5.88837C12.1133 5.85931 12.1443 5.77212 12.2043 5.71306ZM21.4675 7.88056V7.8515C20.7109 7.29462 20.0444 6.82587 19.3789 6.53337C18.7134 6.24087 18.0469 5.94744 17.4414 5.71306C17.9258 6.18181 18.3501 6.76775 18.6223 7.32462C18.9255 7.91056 19.2278 8.52556 19.47 9.1115C19.5911 9.05244 19.7422 8.99431 19.9243 8.87712C20.0754 8.789 20.2876 8.70087 20.4697 8.61369C20.6518 8.4965 20.803 8.37931 20.9841 8.26212C21.1662 8.11587 21.3474 7.99869 21.4685 7.8815L21.4675 7.88056ZM20.9531 14.414H24.4348C24.4348 13.3302 24.1926 12.3046 23.7383 11.2499C23.314 10.2243 22.7085 9.37494 21.9519 8.64275V8.61369C21.8008 8.84806 21.5886 9.05337 21.3765 9.19962C21.1343 9.34587 20.9221 9.46306 20.6799 9.58025C20.5288 9.66837 20.3767 9.78556 20.2256 9.84369C20.0745 9.93181 19.8623 9.98994 19.7112 10.0781C19.8323 10.3124 19.9534 10.5759 20.0745 10.8102C20.1655 11.0737 20.3167 11.3671 20.3777 11.6306C20.5598 12.0993 20.6809 12.5971 20.802 13.0959C20.8931 13.5356 20.9531 14.0043 20.9531 14.414ZM9.99463 10.0781V10.049C9.75244 9.93181 9.48022 9.84369 9.26806 9.7265C9.05591 9.58025 8.84375 9.43306 8.66259 9.31587C8.48047 9.22775 8.29931 9.11056 8.14819 8.99337C7.99706 8.87619 7.87597 8.759 7.75487 8.64181C6.96728 9.374 6.39281 10.1943 6.02953 11.1618C5.63622 12.1284 5.36303 13.2131 5.24194 14.3849H8.96581C8.96581 13.5646 9.08691 12.7734 9.29906 11.9821C9.48119 11.1618 9.75244 10.5468 9.99463 10.0781ZM14.2019 14.3849V11.0156C13.9597 11.0446 13.6565 11.0446 13.3843 11.0156C13.0811 10.9865 12.7788 10.8984 12.5066 10.8102C12.2644 10.7512 11.9612 10.6931 11.719 10.6049C11.4468 10.5459 11.1736 10.4287 10.9624 10.3115C10.7803 10.6049 10.6292 10.9565 10.5081 11.3371C10.3569 11.6887 10.2659 12.0693 10.1748 12.4209C10.1138 12.7724 10.0838 13.1531 10.0537 13.4756C10.0237 13.7981 9.99269 14.1206 9.99269 14.384H14.2009L14.2019 14.3849ZM15.4739 11.0746V14.3849H19.9543C19.9543 14.2087 19.9543 14.0043 19.9243 13.7699C19.8633 13.5646 19.8332 13.3012 19.8032 13.0668C19.7122 12.7152 19.6211 12.3346 19.5 11.9831C19.3789 11.6606 19.2578 11.3381 19.1067 11.0746C19.0457 10.9284 18.9856 10.7521 18.9246 10.6349C18.8335 10.4887 18.7424 10.4006 18.6824 10.3124C18.3491 10.5468 17.8948 10.6931 17.3503 10.8102C16.8359 10.9274 16.2305 11.0446 15.6851 11.0737H15.4729L15.4739 11.0746ZM8.96484 15.3515H5.24097C5.24097 15.8493 5.33203 16.4062 5.48316 17.0802C5.63428 17.7834 5.9375 18.4284 6.27075 19.1315C6.42188 19.4831 6.604 19.8346 6.78516 20.1862C6.99731 20.5087 7.2395 20.8602 7.48169 21.1827C7.66381 21.0656 7.84497 20.9774 7.99609 20.8893C8.17822 20.8012 8.38941 20.684 8.57153 20.5959C8.78369 20.5078 8.99584 20.4196 9.23803 20.3024C9.45019 20.2143 9.72241 20.0971 9.99463 19.9799C9.75244 19.2478 9.48022 18.5446 9.29809 17.7534C9.08594 16.9912 8.96484 16.2299 8.96484 15.3806V15.3515ZM14.2019 18.779V15.3515H9.99366C9.99366 15.5859 10.0237 15.9374 10.0847 16.289C10.1148 16.6406 10.2058 17.0212 10.2668 17.4027C10.3879 17.8134 10.479 18.2231 10.6001 18.5746C10.7212 18.9262 10.8423 19.2196 10.9634 19.4831C11.5088 19.2777 12.0532 19.1315 12.4165 19.0434C12.8098 18.9262 13.1731 18.8381 13.5364 18.809H13.8696C13.9907 18.7799 14.1118 18.7799 14.2029 18.7799L14.2019 18.779ZM15.4739 15.3515V18.7499C15.686 18.779 15.9282 18.809 16.1704 18.8381C16.4426 18.8671 16.7759 18.9262 17.0481 18.9843L17.5024 19.0724C17.6536 19.1315 17.8357 19.1606 17.9868 19.1896C18.1689 19.2487 18.3501 19.2777 18.5322 19.3359C18.6833 19.3949 18.8354 19.424 18.9565 19.4821C19.3498 18.5156 19.592 17.7243 19.7441 17.0502C19.8953 16.4052 19.9563 15.8493 19.9563 15.3806V15.3515H15.4758H15.4739ZM24.4348 15.3806V15.3515H20.9531V15.5277C20.9231 16.0846 20.832 16.7287 20.7109 17.4027C20.5898 18.0477 20.3176 18.809 19.9543 19.7465C20.4387 19.9809 20.8931 20.2153 21.2563 20.4496C21.6196 20.684 21.9529 20.9474 22.1951 21.1818C22.7095 20.684 23.1638 20.0099 23.5571 19.1306C23.9504 18.2812 24.2236 17.4018 24.3747 16.4643C24.4048 16.2881 24.4048 16.1127 24.4358 15.9365V15.3796L24.4348 15.3806ZM14.2019 24.2868V19.7165C13.4453 19.8337 12.8088 19.9799 12.3245 20.0971C11.8401 20.2143 11.4768 20.3315 11.2346 20.4487C11.4167 20.8884 11.5979 21.269 11.78 21.6206C11.9622 21.9431 12.1733 22.2946 12.3555 22.5871C12.4165 22.7043 12.5376 22.8215 12.6277 22.9678C12.7188 23.0849 12.7788 23.2312 12.8699 23.3484C12.9609 23.4946 13.052 23.6709 13.1421 23.8462C13.2632 23.9924 13.3543 24.1687 13.4753 24.2859L14.2019 24.2868ZM15.4739 24.2868H16.1704C16.4426 24.0815 16.7158 23.789 16.927 23.4665C17.1692 23.144 17.4414 22.7634 17.6235 22.4409C17.8357 22.0603 18.0478 21.7087 18.229 21.3571C18.4102 21.0056 18.5622 20.6831 18.6833 20.4487C18.3501 20.3315 17.8958 20.2143 17.4424 20.0971C16.989 19.9799 16.3525 19.8628 15.4748 19.7456V24.2868H15.4739ZM21.4675 21.8849V21.8559C21.4065 21.7678 21.2854 21.6506 21.1953 21.5624C21.1052 21.4743 20.9531 21.3571 20.802 21.269C20.6809 21.1809 20.5298 21.0928 20.3477 21.0056C20.1655 20.9184 19.9233 20.8003 19.7122 20.6831C19.5911 20.9174 19.3789 21.3281 19.0767 21.884C18.8044 22.4409 18.3201 23.1149 17.7146 23.8471C18.4712 23.7299 19.1377 23.4665 19.7432 23.1149C20.4097 22.7924 20.9841 22.3528 21.4685 21.884L21.4675 21.8849ZM10.2058 20.9474V20.9184C9.99366 21.0356 9.66041 21.1818 9.32812 21.329C8.96484 21.4753 8.57153 21.6515 8.20825 21.8859C8.42041 22.0621 8.63256 22.2374 8.81372 22.3546C8.99584 22.5009 9.20703 22.6181 9.38916 22.7353C9.72241 22.9406 10.1157 23.1459 10.509 23.3212C10.9023 23.4965 11.3867 23.6728 11.9922 23.849C11.78 23.6146 11.6289 23.3212 11.4778 23.0868C11.3267 22.8524 11.1445 22.6181 10.9934 22.3837C10.8423 22.1493 10.7212 21.8859 10.6001 21.6515C10.449 21.4171 10.3279 21.1827 10.2068 20.9484L10.2058 20.9474Z" fill="#EAEAEA"/>
</svg>
